<?xml version="1.0" encoding="utf-8"?>
<!-- Svg Vector Icons : http://www.sfont.cn -->
<!DOCTYPE svg PUBLIC "-//W3C//DTD SVG 1.1//EN" "http://www.w3.org/Graphics/SVG/1.1/DTD/svg11.dtd">
<svg version="1.1" xmlns="http://www.w3.org/2000/svg" xmlns:xlink="http://www.w3.org/1999/xlink" x="0px" y="0px" viewBox="0 0 1000 1000" enable-background="new 0 0 1000 1000" xml:space="preserve">
<metadata> Svg Vector Icons : http://www.sfont.cn </metadata>
<g><path d="M990,537.9v416.6c0,20.9-13.7,37.9-30.6,37.9H40.6c-16.9,0-30.6-17-30.6-37.9V537.9C10,517,23.7,500,40.6,500c16.9,0,30.6,17,30.6,37.9v378.7h857.5V537.9c0-20.9,13.7-37.9,30.6-37.9S990,517,990,537.9z"/><path d="M836.9,7.7H163.1c-33.8,0-61.3,33.9-61.3,75.7v681.6c0,41.8,27.5,75.7,61.3,75.7h673.8c33.8,0,61.3-33.9,61.3-75.7V83.4C898.1,41.6,870.7,7.7,836.9,7.7z M775.6,765.1H224.4c-33.8,0-61.3-33.9-61.3-75.7h673.8C836.9,731.2,809.4,765.1,775.6,765.1z M836.9,613.6H163.1V159.2c0-41.8,27.4-75.7,61.3-75.7h551.3c33.8,0,61.2,33.9,61.2,75.7V613.6z"/></g>
</svg>